<?xml version="1.0" encoding="UTF-8" standalone="no"?><!DOCTYPE svg PUBLIC "-//W3C//DTD SVG 1.1//EN" "http://www.w3.org/Graphics/SVG/1.1/DTD/svg11.dtd"><svg width="100%" height="100%" viewBox="0 0 187 19" version="1.1" xmlns="http://www.w3.org/2000/svg" xmlns:xlink="http://www.w3.org/1999/xlink" xml:space="preserve" xmlns:serif="http://www.serif.com/" style="fill-rule:evenodd;clip-rule:evenodd;stroke-linejoin:round;stroke-miterlimit:1.41421;"><path d="M17.053,18.593l-6.764,-18.593l-3.525,0l-6.764,18.593l4.779,0l0.914,-2.768l5.719,0l0.862,2.768l4.779,0Zm-6.842,-6.58l-3.239,0l1.672,-4.962l1.567,4.962Z" style="fill-rule:nonzero;"/><path d="M29.457,5.693c-0.966,-0.966 -1.907,-1.306 -3.291,-1.306c-1.462,0 -2.689,0.679 -3.316,1.306l0,-1.149l-4.178,0l0,14.049l4.282,0l0,-8.408c0,-1.593 1.149,-1.933 1.724,-1.933c0.731,0 1.123,0.313 1.541,0.731l3.238,-3.29Z" style="fill-rule:nonzero;"/><path d="M37.892,18.593l0,-3.603l-1.358,0c-0.575,0 -0.862,-0.288 -0.862,-0.862l0,-5.745l2.22,0l0,-3.291l-2.22,0l0,-4.021l-4.283,0l0,4.021l-1.279,0l0,3.291l1.279,0l0,6.058c0,1.933 1.254,4.152 4.361,4.152l2.142,0Z" style="fill-rule:nonzero;"/><path d="M52.437,18.593l0,-14.049l-4.282,0l0,8.409c0,1.593 -1.149,1.932 -1.724,1.932c-0.574,0 -1.723,-0.339 -1.723,-1.932l0,-8.409l-4.283,0l0,8.983c0,1.489 0.183,2.794 1.41,4.022c0.757,0.757 1.828,1.201 3.16,1.201c1.123,0 2.402,-0.444 3.264,-1.306l0,1.149l4.178,0Z" style="fill-rule:nonzero;"/><path d="M66.461,5.693c-0.967,-0.966 -1.907,-1.306 -3.291,-1.306c-1.462,0 -2.689,0.679 -3.316,1.306l0,-1.149l-4.179,0l0,14.049l4.283,0l0,-8.408c0,-1.593 1.149,-1.933 1.724,-1.933c0.731,0 1.123,0.313 1.54,0.731l3.239,-3.29Z" style="fill-rule:nonzero;"/><path d="M78.917,11.569c0,-2.716 -0.339,-4.126 -1.541,-5.38c-0.809,-0.888 -2.245,-1.802 -4.517,-1.802c-2.272,0 -3.709,0.914 -4.518,1.802c-1.201,1.254 -1.541,2.664 -1.541,5.38c0,2.742 0.34,4.1 1.541,5.379c0.836,0.914 2.246,1.802 4.518,1.802c2.272,0 3.682,-0.888 4.517,-1.802c1.202,-1.279 1.541,-2.637 1.541,-5.379Zm-4.283,0c0,1.384 -0.078,2.376 -0.626,2.924c-0.261,0.262 -0.653,0.392 -1.149,0.392c-0.497,0 -0.888,-0.13 -1.149,-0.392c-0.549,-0.548 -0.627,-1.54 -0.627,-2.924c0,-1.384 0.078,-2.377 0.627,-2.925c0.261,-0.261 0.652,-0.392 1.149,-0.392c0.496,0 0.888,0.131 1.149,0.392c0.548,0.548 0.626,1.541 0.626,2.925Z" style="fill-rule:nonzero;"/><path d="M102.89,18.593l-6.764,-18.593l-3.525,0l-6.764,18.593l4.779,0l0.914,-2.768l5.719,0l0.862,2.768l4.779,0Zm-6.842,-6.58l-3.238,0l1.671,-4.962l1.567,4.962Z" style="fill-rule:nonzero;"/><path d="M111.925,14.049c-0.548,0.549 -1.018,0.836 -1.723,0.836c-0.601,0 -0.94,-0.157 -1.332,-0.548c-0.47,-0.496 -0.705,-1.41 -0.705,-2.768c0,-1.358 0.235,-2.272 0.705,-2.769c0.392,-0.391 0.731,-0.548 1.332,-0.548c0.705,0 1.175,0.287 1.723,0.836l2.899,-2.899c-1.149,-1.149 -2.637,-1.802 -4.622,-1.802c-2.429,0 -6.32,1.045 -6.32,7.182c0,6.136 3.891,7.181 6.32,7.181c1.985,0 3.473,-0.653 4.622,-1.802l-2.899,-2.899Z" style="fill-rule:nonzero;"/><path d="M128.9,12.953l0,-1.776c0,-3.865 -2.246,-6.79 -6.32,-6.79c-3.656,0 -6.293,2.585 -6.293,7.182c0,6.058 3.577,7.181 6.685,7.181c2.611,0 4.021,-0.783 5.458,-2.22l-2.56,-2.559c-0.757,0.757 -1.41,1.175 -2.898,1.175c-1.593,0 -2.481,-1.044 -2.481,-2.193l8.409,0Zm-8.409,-2.847c0,-0.339 0.052,-0.705 0.235,-1.097c0.287,-0.6 0.836,-1.096 1.854,-1.096c1.019,0 1.567,0.496 1.854,1.096c0.183,0.392 0.235,0.758 0.235,1.097l-4.178,0Z" style="fill-rule:nonzero;"/><path d="M143.498,4.544l-4.492,0l-2.298,7.286l-2.324,-7.286l-4.492,0l5.171,14.049l3.264,0l5.171,-14.049Z" style="fill-rule:nonzero;"/><path d="M157.103,12.953l0,-1.776c0,-3.865 -2.246,-6.79 -6.32,-6.79c-3.656,0 -6.293,2.585 -6.293,7.182c0,6.058 3.578,7.181 6.685,7.181c2.612,0 4.022,-0.783 5.458,-2.22l-2.559,-2.559c-0.757,0.757 -1.41,1.175 -2.899,1.175c-1.593,0 -2.481,-1.044 -2.481,-2.193l8.409,0Zm-8.409,-2.847c0,-0.339 0.053,-0.705 0.235,-1.097c0.288,-0.6 0.836,-1.096 1.854,-1.096c1.019,0 1.567,0.496 1.855,1.096c0.182,0.392 0.235,0.758 0.235,1.097l-4.179,0Z" style="fill-rule:nonzero;"/><path d="M171.335,18.593l0,-18.593l-4.282,0l0,5.562c-0.81,-0.809 -1.75,-1.175 -3.134,-1.175c-1.358,0 -2.559,0.444 -3.369,1.28c-1.306,1.358 -1.332,3.447 -1.332,5.902c0,2.402 0.026,4.596 1.332,5.901c0.81,0.836 2.037,1.28 3.395,1.28c1.462,0 2.376,-0.444 3.238,-1.306l0,1.149l4.152,0Zm-4.282,-7.024c0,2.01 -0.183,3.316 -1.776,3.316c-1.593,0 -1.776,-1.306 -1.776,-3.316c0,-2.011 0.183,-3.317 1.776,-3.317c1.593,0 1.776,1.306 1.776,3.317Z" style="fill-rule:nonzero;"/><path d="M186.194,11.569c0,-2.716 -0.339,-4.126 -1.54,-5.38c-0.81,-0.888 -2.246,-1.802 -4.518,-1.802c-2.272,0 -3.708,0.914 -4.518,1.802c-1.201,1.254 -1.541,2.664 -1.541,5.38c0,2.742 0.34,4.1 1.541,5.379c0.836,0.914 2.246,1.802 4.518,1.802c2.272,0 3.682,-0.888 4.518,-1.802c1.201,-1.279 1.54,-2.637 1.54,-5.379Zm-4.282,0c0,1.384 -0.079,2.376 -0.627,2.924c-0.261,0.262 -0.653,0.392 -1.149,0.392c-0.496,0 -0.888,-0.13 -1.149,-0.392c-0.549,-0.548 -0.627,-1.54 -0.627,-2.924c0,-1.384 0.078,-2.377 0.627,-2.925c0.261,-0.261 0.653,-0.392 1.149,-0.392c0.496,0 0.888,0.131 1.149,0.392c0.548,0.548 0.627,1.541 0.627,2.925Z" style="fill-rule:nonzero;"/></svg>