<svg viewBox="0 0 187 19" xmlns="http://www.w3.org/2000/svg" fill-rule="evenodd" clip-rule="evenodd" stroke-linejoin="round" stroke-miterlimit="1.414"><path d="M17.053 18.593L10.289 0H6.764L0 18.593h4.779l.914-2.768h5.719l.862 2.768h4.779zm-6.842-6.58H6.972l1.672-4.962 1.567 4.962zM29.457 5.693c-.966-.966-1.907-1.306-3.291-1.306-1.462 0-2.689.679-3.316 1.306V4.544h-4.178v14.049h4.282v-8.408c0-1.593 1.149-1.933 1.724-1.933.731 0 1.123.313 1.541.731l3.238-3.29zM37.892 18.593V14.99h-1.358c-.575 0-.862-.288-.862-.862V8.383h2.22V5.092h-2.22V1.071h-4.283v4.021H30.11v3.291h1.279v6.058c0 1.933 1.254 4.152 4.361 4.152h2.142zM52.437 18.593V4.544h-4.282v8.409c0 1.593-1.149 1.932-1.724 1.932-.574 0-1.723-.339-1.723-1.932V4.544h-4.283v8.983c0 1.489.183 2.794 1.41 4.022.757.757 1.828 1.201 3.16 1.201 1.123 0 2.402-.444 3.264-1.306v1.149h4.178zM66.461 5.693c-.967-.966-1.907-1.306-3.291-1.306-1.462 0-2.689.679-3.316 1.306V4.544h-4.179v14.049h4.283v-8.408c0-1.593 1.149-1.933 1.724-1.933.731 0 1.123.313 1.54.731l3.239-3.29zM78.917 11.569c0-2.716-.339-4.126-1.541-5.38-.809-.888-2.245-1.802-4.517-1.802-2.272 0-3.709.914-4.518 1.802-1.201 1.254-1.541 2.664-1.541 5.38 0 2.742.34 4.1 1.541 5.379.836.914 2.246 1.802 4.518 1.802s3.682-.888 4.517-1.802c1.202-1.279 1.541-2.637 1.541-5.379zm-4.283 0c0 1.384-.078 2.376-.626 2.924-.261.262-.653.392-1.149.392-.497 0-.888-.13-1.149-.392-.549-.548-.627-1.54-.627-2.924s.078-2.377.627-2.925c.261-.261.652-.392 1.149-.392.496 0 .888.131 1.149.392.548.548.626 1.541.626 2.925zM102.89 18.593L96.126 0h-3.525l-6.764 18.593h4.779l.914-2.768h5.719l.862 2.768h4.779zm-6.842-6.58H92.81l1.671-4.962 1.567 4.962zM111.925 14.049c-.548.549-1.018.836-1.723.836-.601 0-.94-.157-1.332-.548-.47-.496-.705-1.41-.705-2.768 0-1.358.235-2.272.705-2.769.392-.391.731-.548 1.332-.548.705 0 1.175.287 1.723.836l2.899-2.899c-1.149-1.149-2.637-1.802-4.622-1.802-2.429 0-6.32 1.045-6.32 7.182 0 6.136 3.891 7.181 6.32 7.181 1.985 0 3.473-.653 4.622-1.802l-2.899-2.899zM128.9 12.953v-1.776c0-3.865-2.246-6.79-6.32-6.79-3.656 0-6.293 2.585-6.293 7.182 0 6.058 3.577 7.181 6.685 7.181 2.611 0 4.021-.783 5.458-2.22l-2.56-2.559c-.757.757-1.41 1.175-2.898 1.175-1.593 0-2.481-1.044-2.481-2.193h8.409zm-8.409-2.847c0-.339.052-.705.235-1.097.287-.6.836-1.096 1.854-1.096 1.019 0 1.567.496 1.854 1.096.183.392.235.758.235 1.097h-4.178zM143.498 4.544h-4.492l-2.298 7.286-2.324-7.286h-4.492l5.171 14.049h3.264l5.171-14.049zM157.103 12.953v-1.776c0-3.865-2.246-6.79-6.32-6.79-3.656 0-6.293 2.585-6.293 7.182 0 6.058 3.578 7.181 6.685 7.181 2.612 0 4.022-.783 5.458-2.22l-2.559-2.559c-.757.757-1.41 1.175-2.899 1.175-1.593 0-2.481-1.044-2.481-2.193h8.409zm-8.409-2.847c0-.339.053-.705.235-1.097.288-.6.836-1.096 1.854-1.096 1.019 0 1.567.496 1.855 1.096.182.392.235.758.235 1.097h-4.179zM171.335 18.593V0h-4.282v5.562c-.81-.809-1.75-1.175-3.134-1.175-1.358 0-2.559.444-3.369 1.28-1.306 1.358-1.332 3.447-1.332 5.902 0 2.402.026 4.596 1.332 5.901.81.836 2.037 1.28 3.395 1.28 1.462 0 2.376-.444 3.238-1.306v1.149h4.152zm-4.282-7.024c0 2.01-.183 3.316-1.776 3.316s-1.776-1.306-1.776-3.316c0-2.011.183-3.317 1.776-3.317s1.776 1.306 1.776 3.317zM186.194 11.569c0-2.716-.339-4.126-1.54-5.38-.81-.888-2.246-1.802-4.518-1.802s-3.708.914-4.518 1.802c-1.201 1.254-1.541 2.664-1.541 5.38 0 2.742.34 4.1 1.541 5.379.836.914 2.246 1.802 4.518 1.802s3.682-.888 4.518-1.802c1.201-1.279 1.54-2.637 1.54-5.379zm-4.282 0c0 1.384-.079 2.376-.627 2.924-.261.262-.653.392-1.149.392s-.888-.13-1.149-.392c-.549-.548-.627-1.54-.627-2.924s.078-2.377.627-2.925c.261-.261.653-.392 1.149-.392s.888.131 1.149.392c.548.548.627 1.541.627 2.925z" fill-rule="nonzero"/></svg>